<svg id="kity_svg_6" xmlns="http://www.w3.org/2000/svg" xmlns:xlink="http://www.w3.org/1999/xlink" version="1.1" width="5863" height="421" style="background: rgb(251, 251, 251); visibility: visible;" viewBox="0 0 5863 421"><defs id="kity_defs_7"><linearGradient id="kity_linearGradient_17" x1="0" y1="0" x2="0" y2="1"><stop id="kity_stop_18" offset="0" stop-color="rgb(255, 255, 255)"></stop><stop id="kity_stop_19" offset="1" stop-color="rgb(204, 204, 204)"></stop></linearGradient><marker id="kity_marker_2" orient="auto" refX="6" refY="0" viewBox="-7 -7 14 14" markerWidth="7" markerHeight="7" markerUnits="userSpaceOnUse"><path id="kity_path_3" fill="rgb(115, 161, 191)" stroke="none" d="M6,0A6,6,0,1,1,-6,0A6,6,0,1,1,6,0"></path></marker></defs><g id="kity_g_8"><g id="minder1" text-rendering="optimize-speed"><g id="minder_connect_group1"><path id="kity_path_31" fill="none" stroke="rgb(115, 161, 191)" stroke-width="1" d="M2788.4999839290977,60.50000091642141v30h-2647V110.50000091642141"></path><path id="kity_path_33" fill="none" stroke="rgb(115, 161, 191)" stroke-width="1" d="M141.49998392909765,136.5000009164214v20h-63.5V171.5000009164214"></path><path id="kity_path_35" fill="none" stroke="rgb(115, 161, 191)" stroke-width="1" d="M141.49998392909765,136.5000009164214v20h78V171.5000009164214"></path><path id="kity_path_37" fill="none" stroke="rgb(115, 161, 191)" stroke-width="1" d="M2788.4999839290977,60.50000091642141v30h-879.5V110.50000091642141"></path><path id="kity_path_39" fill="none" stroke="rgb(115, 161, 191)" stroke-width="1" d="M1909.4999839290977,136.5000009164214v20h-733.5V171.5000009164214"></path><path id="kity_path_41" fill="none" stroke="rgb(115, 161, 191)" stroke-width="1" d="M1175.4999839290977,193.5000009164214v15h-395V223.5000009164214"></path><path id="kity_path_43" fill="none" stroke="rgb(115, 161, 191)" stroke-width="1" d="M780.4999839290977,245.5000009164214v15h-417.5V275.5000009164214"></path><path id="kity_path_45" fill="none" stroke="rgb(115, 161, 191)" stroke-width="1" d="M780.4999839290977,245.5000009164214v15h-252V275.5000009164214"></path><path id="kity_path_47" fill="none" stroke="rgb(115, 161, 191)" stroke-width="1" d="M780.4999839290977,245.5000009164214v15h-86V275.5000009164214"></path><path id="kity_path_49" fill="none" stroke="rgb(115, 161, 191)" stroke-width="1" d="M780.4999839290977,245.5000009164214v15h86V275.5000009164214"></path><path id="kity_path_51" fill="none" stroke="rgb(115, 161, 191)" stroke-width="1" d="M780.4999839290977,245.5000009164214v15h258V275.5000009164214"></path><path id="kity_path_53" fill="none" stroke="rgb(115, 161, 191)" stroke-width="1" d="M780.4999839290977,245.5000009164214v15h418V275.5000009164214"></path><path id="kity_path_55" fill="none" stroke="rgb(115, 161, 191)" stroke-width="1" d="M1175.4999839290977,193.5000009164214v15h395V223.5000009164214"></path><path id="kity_path_59" fill="none" stroke="rgb(115, 161, 191)" stroke-width="1" d="M1570.4999839290977,245.5000009164214v15h-213V275.5000009164214"></path><path id="kity_path_61" fill="none" stroke="rgb(115, 161, 191)" stroke-width="1" d="M1570.4999839290977,245.5000009164214v15h-53V275.5000009164214"></path><path id="kity_path_63" fill="none" stroke="rgb(115, 161, 191)" stroke-width="1" d="M1570.4999839290977,245.5000009164214v15h201V275.5000009164214"></path><path id="kity_path_65" fill="none" stroke="rgb(115, 161, 191)" stroke-width="1" d="M1771.4999839290977,297.5000009164214v15h-87V327.5000009164214"></path><path id="kity_path_67" fill="none" stroke="rgb(115, 161, 191)" stroke-width="1" d="M1771.4999839290977,297.5000009164214v15h87V327.5000009164214"></path><path id="kity_path_69" fill="none" stroke="rgb(115, 161, 191)" stroke-width="1" d="M1909.4999839290977,136.5000009164214v20h279.5V171.5000009164214"></path><path id="kity_path_71" fill="none" stroke="rgb(115, 161, 191)" stroke-width="1" d="M2188.4999839290977,193.5000009164214v15h-158V223.5000009164214"></path><path id="kity_path_73" fill="none" stroke="rgb(115, 161, 191)" stroke-width="1" d="M2188.4999839290977,193.5000009164214v15h0V223.5000009164214"></path><path id="kity_path_75" fill="none" stroke="rgb(115, 161, 191)" stroke-width="1" d="M2188.4999839290977,193.5000009164214v15h158V223.5000009164214"></path><path id="kity_path_77" fill="none" stroke="rgb(115, 161, 191)" stroke-width="1" d="M1909.4999839290977,136.5000009164214v20h600.5V171.5000009164214"></path><path id="kity_path_79" fill="none" stroke="rgb(115, 161, 191)" stroke-width="1" d="M1909.4999839290977,136.5000009164214v20h745V171.5000009164214"></path><path id="kity_path_81" fill="none" stroke="rgb(115, 161, 191)" stroke-width="1" d="M2788.4999839290977,60.50000091642141v30h1371V110.50000091642141"></path><path id="kity_path_83" fill="none" stroke="rgb(115, 161, 191)" stroke-width="1" d="M4159.499983929098,136.5000009164214v20h-786V171.5000009164214"></path><path id="kity_path_85" fill="none" stroke="rgb(115, 161, 191)" stroke-width="1" d="M3373.4999839290977,193.5000009164214v15h-582.5V223.5000009164214"></path><path id="kity_path_87" fill="none" stroke="rgb(115, 161, 191)" stroke-width="1" d="M3373.4999839290977,193.5000009164214v15h-441.5V223.5000009164214"></path><path id="kity_path_89" fill="none" stroke="rgb(115, 161, 191)" stroke-width="1" d="M3373.4999839290977,193.5000009164214v15h570.5V223.5000009164214"></path><path id="kity_path_91" fill="none" stroke="rgb(115, 161, 191)" stroke-width="1" d="M3944.4999839290977,245.5000009164214v15h-417V275.5000009164214"></path><path id="kity_path_93" fill="none" stroke="rgb(115, 161, 191)" stroke-width="1" d="M3527.4999839290977,297.5000009164214v15h-440.5V327.5000009164214"></path><path id="kity_path_95" fill="none" stroke="rgb(115, 161, 191)" stroke-width="1" d="M3527.4999839290977,297.5000009164214v15h-266V327.5000009164214"></path><path id="kity_path_97" fill="none" stroke="rgb(115, 161, 191)" stroke-width="1" d="M3527.4999839290977,297.5000009164214v15h-91V327.5000009164214"></path><path id="kity_path_99" fill="none" stroke="rgb(115, 161, 191)" stroke-width="1" d="M3527.4999839290977,297.5000009164214v15h90V327.5000009164214"></path><path id="kity_path_101" fill="none" stroke="rgb(115, 161, 191)" stroke-width="1" d="M3527.4999839290977,297.5000009164214v15h271V327.5000009164214"></path><path id="kity_path_103" fill="none" stroke="rgb(115, 161, 191)" stroke-width="1" d="M3527.4999839290977,297.5000009164214v15h440V327.5000009164214"></path><path id="kity_path_105" fill="none" stroke="rgb(115, 161, 191)" stroke-width="1" d="M3944.4999839290977,245.5000009164214v15h417V275.5000009164214"></path><path id="kity_path_109" fill="none" stroke="rgb(115, 161, 191)" stroke-width="1" d="M4361.499983929098,297.5000009164214v15h-224V327.5000009164214"></path><path id="kity_path_111" fill="none" stroke="rgb(115, 161, 191)" stroke-width="1" d="M4361.499983929098,297.5000009164214v15h-55V327.5000009164214"></path><path id="kity_path_113" fill="none" stroke="rgb(115, 161, 191)" stroke-width="1" d="M4361.499983929098,297.5000009164214v15h212V327.5000009164214"></path><path id="kity_path_115" fill="none" stroke="rgb(115, 161, 191)" stroke-width="1" d="M4573.499983929098,349.5000009164214v15h-91V379.5000009164214"></path><path id="kity_path_117" fill="none" stroke="rgb(115, 161, 191)" stroke-width="1" d="M4573.499983929098,349.5000009164214v15h92V379.5000009164214"></path><path id="kity_path_119" fill="none" stroke="rgb(115, 161, 191)" stroke-width="1" d="M4159.499983929098,136.5000009164214v20h659.5V171.5000009164214"></path><path id="kity_path_121" fill="none" stroke="rgb(115, 161, 191)" stroke-width="1" d="M4159.499983929098,136.5000009164214v20h786V171.5000009164214"></path><path id="kity_path_123" fill="none" stroke="rgb(115, 161, 191)" stroke-width="1" d="M2788.4999839290977,60.50000091642141v30h2647.5V110.50000091642141"></path><path id="kity_path_125" fill="none" stroke="rgb(115, 161, 191)" stroke-width="1" d="M5436.499983929098,136.5000009164214v20h-363.5V171.5000009164214"></path><path id="kity_path_127" fill="none" stroke="rgb(115, 161, 191)" stroke-width="1" d="M5436.499983929098,136.5000009164214v20h-150.5V171.5000009164214"></path><path id="kity_path_129" fill="none" stroke="rgb(115, 161, 191)" stroke-width="1" d="M5285.499983929098,193.5000009164214v15h-72V223.5000009164214"></path><path id="kity_path_131" fill="none" stroke="rgb(115, 161, 191)" stroke-width="1" d="M5285.499983929098,193.5000009164214v15h78V223.5000009164214"></path><path id="kity_path_133" fill="none" stroke="rgb(115, 161, 191)" stroke-width="1" d="M5436.499983929098,136.5000009164214v20h149V171.5000009164214"></path><path id="kity_path_135" fill="none" stroke="rgb(115, 161, 191)" stroke-width="1" d="M5585.499983929098,193.5000009164214v15h-71.5V223.5000009164214"></path><path id="kity_path_137" fill="none" stroke="rgb(115, 161, 191)" stroke-width="1" d="M5585.499983929098,193.5000009164214v15h78.5V223.5000009164214"></path><path id="kity_path_139" fill="none" stroke="rgb(115, 161, 191)" stroke-width="1" d="M5436.499983929098,136.5000009164214v20h363.5V171.5000009164214"></path></g><g id="minder_node1"><path id="node_outline1" fill="rgb(115, 161, 191)" stroke="rgb(115, 161, 191)" d="M2697.4999839290977,20.500000916421413h182a5,5,0,0,1,5,5v30a5,5,0,0,1,-5,5h-182a5,5,0,0,1,-5,-5v-30a5,5,0,0,1,5,-5z" stroke-width="3"></path><g id="node_text1" fill="white"><text id="kity_text_22" text-rendering="inherit" font-size="16" dy=".8em" y="30.100000880658627" x="2716.4999839290977">家政服务机器人小智</text></g></g><g id="kity_g_12"><path id="kity_path_13" fill="none" stroke="none" d="M2716.4999839290977,40.50000091642141h0v0h0z"></path></g><g id="kity_g_14"><path id="kity_path_15" fill="none" stroke="none" d="M2716.4999839290977,40.50000091642141h0v0h0z"></path><path id="kity_path_16" fill="none" stroke="none"></path></g><g id="minder_node2"><g id="node_expander3" style="cursor: pointer;"><path id="kity_path_312" fill="white" stroke="gray" d="M147.49994555860758,103.50000185519457A6,6,0,1,1,135.49994555860758,103.50000185519457A6,6,0,1,1,147.49994555860758,103.50000185519457"></path><path id="kity_path_313" fill="none" stroke="gray" d="M136.99994555860758,103.50000185519457L145.99994555860758,103.50000185519457"></path></g><path id="node_outline4" fill="rgb(238, 243, 246)" stroke="rgb(115, 161, 191)" d="M91.49994506686926,110.50000215321779h100a3,3,0,0,1,3,3v20a3,3,0,0,1,-3,3h-100a3,3,0,0,1,-3,-3v-20a3,3,0,0,1,3,-3z" stroke-width="1"></path><g id="node_text4" fill="black"><text id="kity_text_145" text-rendering="inherit" font-size="14" dy=".8em" y="114.40000212192535" x="108.49994506686926">需求分析R</text></g></g><g id="minder_node3"><g id="node_expander1" style="cursor: pointer;" display="none"><path id="kity_path_306" fill="white" stroke="gray" d="M83.99994461238384,165.50000277906656A6,6,0,1,1,71.99994461238384,165.50000277906656A6,6,0,1,1,83.99994461238384,165.50000277906656"></path><path id="kity_path_307" fill="none" stroke="gray"></path></g><path id="node_outline2" fill="none" stroke="none" d="M25.499943904578686,171.5000030323863h105a5,5,0,0,1,5,5v12a5,5,0,0,1,-5,5h-105a5,5,0,0,1,-5,-5v-12a5,5,0,0,1,5,-5z"></path><g id="node_text2" fill="black"><text id="kity_text_141" text-rendering="inherit" font-size="12" dy=".8em" y="174.7000030055642" x="30.499943904578686">系统需求分析R01</text></g></g><g id="minder_node4"><g id="node_expander2" style="cursor: pointer;" display="none"><path id="kity_path_309" fill="white" stroke="gray" d="M225.49994672089815,165.50000277906656A6,6,0,1,1,213.49994672089815,165.50000277906656A6,6,0,1,1,225.49994672089815,165.50000277906656"></path><path id="kity_path_310" fill="none" stroke="gray"></path></g><path id="node_outline3" fill="none" stroke="none" d="M180.49994621425867,171.5000030323863h78a5,5,0,0,1,5,5v12a5,5,0,0,1,-5,5h-78a5,5,0,0,1,-5,-5v-12a5,5,0,0,1,5,-5z"></path><g id="node_text3" fill="black"><text id="kity_text_143" text-rendering="inherit" font-size="12" dy=".8em" y="174.7000030055642" x="185.49994621425867">SRS撰写R02</text></g></g><g id="minder_node5"><g id="node_expander25" style="cursor: pointer;"><path id="kity_path_378" fill="white" stroke="gray" d="M1914.99997189641,103.50000185519457A6,6,0,1,1,1902.99997189641,103.50000185519457A6,6,0,1,1,1914.99997189641,103.50000185519457"></path><path id="kity_path_379" fill="none" stroke="gray" d="M1904.49997189641,103.50000185519457L1913.49997189641,103.50000185519457"></path></g><path id="node_outline26" fill="rgb(238, 243, 246)" stroke="rgb(115, 161, 191)" d="M1858.499971397221,110.50000215321779h101a3,3,0,0,1,3,3v20a3,3,0,0,1,-3,3h-101a3,3,0,0,1,-3,-3v-20a3,3,0,0,1,3,-3z" stroke-width="1"></path><g id="node_text26" fill="black"><text id="kity_text_189" text-rendering="inherit" font-size="14" dy=".8em" y="114.40000212192535" x="1875.499971397221">系统设计D</text></g></g><g id="minder_node6"><g id="node_expander18" style="cursor: pointer;"><path id="kity_path_357" fill="white" stroke="gray" d="M1181.4999609664083,165.50000277906656A6,6,0,1,1,1169.4999609664083,165.50000277906656A6,6,0,1,1,1181.4999609664083,165.50000277906656"></path><path id="kity_path_358" fill="none" stroke="gray" d="M1170.9999609664083,165.50000277906656L1179.9999609664083,165.50000277906656"></path></g><path id="node_outline19" fill="none" stroke="none" d="M1122.4999602511525,171.5000030323863h106a5,5,0,0,1,5,5v12a5,5,0,0,1,-5,5h-106a5,5,0,0,1,-5,-5v-12a5,5,0,0,1,5,-5z"></path><g id="node_text19" fill="black"><text id="kity_text_175" text-rendering="inherit" font-size="12" dy=".8em" y="174.7000030055642" x="1127.4999602511525">系统功能设计D01</text></g></g><g id="minder_node7"><g id="node_expander10" style="cursor: pointer;"><path id="kity_path_333" fill="white" stroke="gray" d="M786.4999550804496,217.50000355392694A6,6,0,1,1,774.4999550804496,217.50000355392694A6,6,0,1,1,786.4999550804496,217.50000355392694"></path><path id="kity_path_334" fill="none" stroke="gray" d="M775.9999550804496,217.50000355392694L784.9999550804496,217.50000355392694"></path></g><path id="node_outline11" fill="none" stroke="none" d="M720.4999542608857,223.50000380724669h120a5,5,0,0,1,5,5v12a5,5,0,0,1,-5,5h-120a5,5,0,0,1,-5,-5v-12a5,5,0,0,1,5,-5z"></path><g id="node_text11" fill="black"><text id="kity_text_159" text-rendering="inherit" font-size="12" dy=".8em" y="226.7000037804246" x="725.4999542608857">基础功能设计D0101</text></g></g><g id="minder_node8"><g id="node_expander4" style="cursor: pointer;" display="none"><path id="kity_path_315" fill="white" stroke="gray" d="M368.9999488592148,269.5000043287873A6,6,0,1,1,356.9999488592148,269.5000043287873A6,6,0,1,1,368.9999488592148,269.5000043287873"></path><path id="kity_path_316" fill="none" stroke="gray"></path></g><path id="node_outline5" fill="none" stroke="none" d="M308.4999481216073,275.50000458210707h109a5,5,0,0,1,5,5v12a5,5,0,0,1,-5,5h-109a5,5,0,0,1,-5,-5v-12a5,5,0,0,1,5,-5z"></path><g id="node_text5" fill="black"><text id="kity_text_147" text-rendering="inherit" font-size="12" dy=".8em" y="278.700004555285" x="313.4999481216073">自动建图D010101</text></g></g><g id="minder_node9"><g id="node_expander5" style="cursor: pointer;" display="none"><path id="kity_path_318" fill="white" stroke="gray" d="M534.499951325357,269.5000043287873A6,6,0,1,1,522.499951325357,269.5000043287873A6,6,0,1,1,534.499951325357,269.5000043287873"></path><path id="kity_path_319" fill="none" stroke="gray"></path></g><path id="node_outline6" fill="none" stroke="none" d="M467.49995049089193,275.50000458210707h122a5,5,0,0,1,5,5v12a5,5,0,0,1,-5,5h-122a5,5,0,0,1,-5,-5v-12a5,5,0,0,1,5,-5z"></path><g id="node_text6" fill="black"><text id="kity_text_149" text-rendering="inherit" font-size="12" dy=".8em" y="278.700004555285" x="472.49995049089193">导航与避障D010102</text></g></g><g id="minder_node10"><g id="node_expander6" style="cursor: pointer;" display="none"><path id="kity_path_321" fill="white" stroke="gray" d="M700.4999537989497,269.5000043287873A6,6,0,1,1,688.4999537989497,269.5000043287873A6,6,0,1,1,700.4999537989497,269.5000043287873"></path><path id="kity_path_322" fill="none" stroke="gray"></path></g><path id="node_outline7" fill="none" stroke="none" d="M639.4999530538917,275.50000458210707h110a5,5,0,0,1,5,5v12a5,5,0,0,1,-5,5h-110a5,5,0,0,1,-5,-5v-12a5,5,0,0,1,5,-5z"></path><g id="node_text7" fill="black"><text id="kity_text_151" text-rendering="inherit" font-size="12" dy=".8em" y="278.700004555285" x="644.4999530538917">物品抓取D010103</text></g></g><g id="minder_node11"><g id="node_expander7" style="cursor: pointer;" display="none"><path id="kity_path_324" fill="white" stroke="gray" d="M872.4999563619494,269.5000043287873A6,6,0,1,1,860.4999563619494,269.5000043287873A6,6,0,1,1,872.4999563619494,269.5000043287873"></path><path id="kity_path_325" fill="none" stroke="gray"></path></g><path id="node_outline8" fill="none" stroke="none" d="M799.4999554380774,275.50000458210707h134a5,5,0,0,1,5,5v12a5,5,0,0,1,-5,5h-134a5,5,0,0,1,-5,-5v-12a5,5,0,0,1,5,-5z"></path><g id="node_text8" fill="black"><text id="kity_text_153" text-rendering="inherit" font-size="12" dy=".8em" y="278.700004555285" x="804.4999554380774">语音指令取物D010104</text></g></g><g id="minder_node12"><g id="node_expander8" style="cursor: pointer;" display="none"><path id="kity_path_327" fill="white" stroke="gray" d="M1044.4999589249492,269.5000043287873A6,6,0,1,1,1032.4999589249492,269.5000043287873A6,6,0,1,1,1044.4999589249492,269.5000043287873"></path><path id="kity_path_328" fill="none" stroke="gray"></path></g><path id="node_outline9" fill="none" stroke="none" d="M983.4999581798911,275.50000458210707h110a5,5,0,0,1,5,5v12a5,5,0,0,1,-5,5h-110a5,5,0,0,1,-5,-5v-12a5,5,0,0,1,5,-5z"></path><g id="node_text9" fill="black"><text id="kity_text_155" text-rendering="inherit" font-size="12" dy=".8em" y="278.700004555285" x="988.4999581798911">系统前端D010105</text></g></g><g id="minder_node13"><g id="node_expander9" style="cursor: pointer;" display="none"><path id="kity_path_330" fill="white" stroke="gray" d="M1204.499961309135,269.5000043287873A6,6,0,1,1,1192.499961309135,269.5000043287873A6,6,0,1,1,1204.499961309135,269.5000043287873"></path><path id="kity_path_331" fill="none" stroke="gray"></path></g><path id="node_outline10" fill="none" stroke="none" d="M1143.499960564077,275.50000458210707h110a5,5,0,0,1,5,5v12a5,5,0,0,1,-5,5h-110a5,5,0,0,1,-5,-5v-12a5,5,0,0,1,5,-5z"></path><g id="node_text10" fill="black"><text id="kity_text_157" text-rendering="inherit" font-size="12" dy=".8em" y="278.700004555285" x="1148.499960564077">系统后端D010106</text></g></g><g id="minder_node14"><g id="node_expander17" style="cursor: pointer;"><path id="kity_path_354" fill="white" stroke="gray" d="M1576.499966852367,217.50000355392694A6,6,0,1,1,1564.499966852367,217.50000355392694A6,6,0,1,1,1576.499966852367,217.50000355392694"></path><path id="kity_path_355" fill="none" stroke="gray" d="M1565.999966852367,217.50000355392694L1574.999966852367,217.50000355392694"></path></g><path id="node_outline18" fill="none" stroke="none" d="M1510.499966032803,223.50000380724669h120a5,5,0,0,1,5,5v12a5,5,0,0,1,-5,5h-120a5,5,0,0,1,-5,-5v-12a5,5,0,0,1,5,-5z"></path><g id="node_text18" fill="black"><text id="kity_text_173" text-rendering="inherit" font-size="12" dy=".8em" y="226.7000037804246" x="1515.499966032803">扩展功能设计D0102</text></g></g><g id="minder_node16"><g id="node_expander12" style="cursor: pointer;" display="none"><path id="kity_path_339" fill="white" stroke="gray" d="M1363.4999636784196,269.5000043287873A6,6,0,1,1,1351.4999636784196,269.5000043287873A6,6,0,1,1,1363.4999636784196,269.5000043287873"></path><path id="kity_path_340" fill="none" stroke="gray"></path></g><path id="node_outline13" fill="none" stroke="none" d="M1302.4999629333615,275.50000458210707h110a5,5,0,0,1,5,5v12a5,5,0,0,1,-5,5h-110a5,5,0,0,1,-5,-5v-12a5,5,0,0,1,5,-5z" stroke-width="3"></path><g id="node_text13" fill="black"><text id="kity_text_163" text-rendering="inherit" font-size="12" dy=".8em" y="278.700004555285" x="1307.4999629333615">倾倒报警D010201</text></g></g><g id="minder_node17"><g id="node_expander13" style="cursor: pointer;" display="none"><path id="kity_path_342" fill="white" stroke="gray" d="M1523.4999660626054,269.5000043287873A6,6,0,1,1,1511.4999660626054,269.5000043287873A6,6,0,1,1,1523.4999660626054,269.5000043287873"></path><path id="kity_path_343" fill="none" stroke="gray"></path></g><path id="node_outline14" fill="none" stroke="none" d="M1462.4999653175473,275.50000458210707h110a5,5,0,0,1,5,5v12a5,5,0,0,1,-5,5h-110a5,5,0,0,1,-5,-5v-12a5,5,0,0,1,5,-5z" stroke-width="3"></path><g id="node_text14" fill="black"><text id="kity_text_165" text-rendering="inherit" font-size="12" dy=".8em" y="278.700004555285" x="1467.4999653175473">系统维护D010202</text></g></g><g id="minder_node18"><g id="node_expander16" style="cursor: pointer;"><path id="kity_path_351" fill="white" stroke="gray" d="M1777.4999698475003,269.5000043287873A6,6,0,1,1,1765.4999698475003,269.5000043287873A6,6,0,1,1,1777.4999698475003,269.5000043287873"></path><path id="kity_path_352" fill="none" stroke="gray" d="M1766.9999698475003,269.5000043287873L1775.9999698475003,269.5000043287873"></path></g><path id="node_outline17" fill="none" stroke="none" d="M1704.4999689236283,275.50000458210707h134a5,5,0,0,1,5,5v12a5,5,0,0,1,-5,5h-134a5,5,0,0,1,-5,-5v-12a5,5,0,0,1,5,-5z" stroke-width="3"></path><g id="node_text17" fill="black"><text id="kity_text_171" text-rendering="inherit" font-size="12" dy=".8em" y="278.700004555285" x="1709.4999689236283">系统语音助手D010203</text></g></g><g id="minder_node19"><g id="node_expander14" style="cursor: pointer;" display="none"><path id="kity_path_345" fill="white" stroke="gray" d="M1690.4999685510993,321.5000051036477A6,6,0,1,1,1678.4999685510993,321.5000051036477A6,6,0,1,1,1690.4999685510993,321.5000051036477"></path><path id="kity_path_346" fill="none" stroke="gray"></path></g><path id="node_outline15" fill="none" stroke="none" d="M1622.499967701733,327.50000535696745h124a5,5,0,0,1,5,5v12a5,5,0,0,1,-5,5h-124a5,5,0,0,1,-5,-5v-12a5,5,0,0,1,5,-5z" stroke-width="3"></path><g id="node_text15" fill="black"><text id="kity_text_167" text-rendering="inherit" font-size="12" dy=".8em" y="330.70000533014536" x="1627.499967701733">天气预报D01020301</text></g></g><g id="minder_node20"><g id="node_expander15" style="cursor: pointer;" display="none"><path id="kity_path_348" fill="white" stroke="gray" d="M1864.4999711439013,321.5000051036477A6,6,0,1,1,1852.4999711439013,321.5000051036477A6,6,0,1,1,1864.4999711439013,321.5000051036477"></path><path id="kity_path_349" fill="none" stroke="gray"></path></g><path id="node_outline16" fill="none" stroke="none" d="M1796.4999702945352,327.50000535696745h124a5,5,0,0,1,5,5v12a5,5,0,0,1,-5,5h-124a5,5,0,0,1,-5,-5v-12a5,5,0,0,1,5,-5z" stroke-width="3"></path><g id="node_text16" fill="black"><text id="kity_text_169" text-rendering="inherit" font-size="12" dy=".8em" y="330.70000533014536" x="1801.4999702945352">语音聊天D01020302</text></g></g><g id="minder_node21"><g id="node_expander22" style="cursor: pointer;"><path id="kity_path_369" fill="white" stroke="gray" d="M2194.4999760612845,165.50000277906656A6,6,0,1,1,2182.4999760612845,165.50000277906656A6,6,0,1,1,2194.4999760612845,165.50000277906656"></path><path id="kity_path_370" fill="none" stroke="gray" d="M2183.9999760612845,165.50000277906656L2192.9999760612845,165.50000277906656"></path></g><path id="node_outline23" fill="none" stroke="none" d="M2135.499975346029,171.5000030323863h106a5,5,0,0,1,5,5v12a5,5,0,0,1,-5,5h-106a5,5,0,0,1,-5,-5v-12a5,5,0,0,1,5,-5z"></path><g id="node_text23" fill="black"><text id="kity_text_183" text-rendering="inherit" font-size="12" dy=".8em" y="174.7000030055642" x="2140.499975346029">系统结构设计D02</text></g></g><g id="minder_node22"><g id="node_expander19" style="cursor: pointer;" display="none"><path id="kity_path_360" fill="white" stroke="gray" d="M2036.499973706901,217.50000355392694A6,6,0,1,1,2024.499973706901,217.50000355392694A6,6,0,1,1,2036.499973706901,217.50000355392694"></path><path id="kity_path_361" fill="none" stroke="gray"></path></g><path id="node_outline20" fill="none" stroke="none" d="M1970.4999728873372,223.50000380724669h120a5,5,0,0,1,5,5v12a5,5,0,0,1,-5,5h-120a5,5,0,0,1,-5,-5v-12a5,5,0,0,1,5,-5z"></path><g id="node_text20" fill="black"><text id="kity_text_177" text-rendering="inherit" font-size="12" dy=".8em" y="226.7000037804246" x="1975.4999728873372">代码架构设计D0201</text></g></g><g id="minder_node23"><g id="node_expander20" style="cursor: pointer;" display="none"><path id="kity_path_363" fill="white" stroke="gray" d="M2194.4999760612845,217.50000355392694A6,6,0,1,1,2182.4999760612845,217.50000355392694A6,6,0,1,1,2194.4999760612845,217.50000355392694"></path><path id="kity_path_364" fill="none" stroke="gray"></path></g><path id="node_outline21" fill="none" stroke="none" d="M2140.4999754205346,223.50000380724669h96a5,5,0,0,1,5,5v12a5,5,0,0,1,-5,5h-96a5,5,0,0,1,-5,-5v-12a5,5,0,0,1,5,-5z"></path><g id="node_text21" fill="black"><text id="kity_text_179" text-rendering="inherit" font-size="12" dy=".8em" y="226.7000037804246" x="2145.4999754205346">接口定义D0202</text></g></g><g id="minder_node24"><g id="node_expander21" style="cursor: pointer;" display="none"><path id="kity_path_366" fill="white" stroke="gray" d="M2352.499978415668,217.50000355392694A6,6,0,1,1,2340.499978415668,217.50000355392694A6,6,0,1,1,2352.499978415668,217.50000355392694"></path><path id="kity_path_367" fill="none" stroke="gray"></path></g><path id="node_outline22" fill="none" stroke="none" d="M2286.499977596104,223.50000380724669h120a5,5,0,0,1,5,5v12a5,5,0,0,1,-5,5h-120a5,5,0,0,1,-5,-5v-12a5,5,0,0,1,5,-5z"></path><g id="node_text22" fill="black"><text id="kity_text_181" text-rendering="inherit" font-size="12" dy=".8em" y="226.7000037804246" x="2291.499977596104">代码风格规范D0203</text></g></g><g id="minder_node25"><g id="node_expander23" style="cursor: pointer;" display="none"><path id="kity_path_372" fill="white" stroke="gray" d="M2515.4999808445573,165.50000277906656A6,6,0,1,1,2503.4999808445573,165.50000277906656A6,6,0,1,1,2515.4999808445573,165.50000277906656"></path><path id="kity_path_373" fill="none" stroke="gray"></path></g><path id="node_outline24" fill="none" stroke="none" d="M2456.4999801293015,171.5000030323863h106a5,5,0,0,1,5,5v12a5,5,0,0,1,-5,5h-106a5,5,0,0,1,-5,-5v-12a5,5,0,0,1,5,-5z"></path><g id="node_text24" fill="black"><text id="kity_text_185" text-rendering="inherit" font-size="12" dy=".8em" y="174.7000030055642" x="2461.4999801293015">开发任务分配D03</text></g></g><g id="minder_node26"><g id="node_expander24" style="cursor: pointer;" display="none"><path id="kity_path_375" fill="white" stroke="gray" d="M2659.999982997775,165.50000277906656A6,6,0,1,1,2647.999982997775,165.50000277906656A6,6,0,1,1,2659.999982997775,165.50000277906656"></path><path id="kity_path_376" fill="none" stroke="gray"></path></g><path id="node_outline25" fill="none" stroke="none" d="M2612.4999824538827,171.5000030323863h83a5,5,0,0,1,5,5v12a5,5,0,0,1,-5,5h-83a5,5,0,0,1,-5,-5v-12a5,5,0,0,1,5,-5z"></path><g id="node_text25" fill="black"><text id="kity_text_187" text-rendering="inherit" font-size="12" dy=".8em" y="174.7000030055642" x="2617.4999824538827">SDD撰写D04</text></g></g><g id="minder_node27"><g id="node_expander46" style="cursor: pointer;"><path id="kity_path_441" fill="white" stroke="gray" d="M4165.500005431473,103.50000185519457A6,6,0,1,1,4153.500005431473,103.50000185519457A6,6,0,1,1,4165.500005431473,103.50000185519457"></path><path id="kity_path_442" fill="none" stroke="gray" d="M4155.000005431473,103.50000185519457L4164.000005431473,103.50000185519457"></path></g><path id="node_outline47" fill="rgb(238, 243, 246)" stroke="rgb(115, 161, 191)" d="M4112.500004984438,110.50000215321779h94a3,3,0,0,1,3,3v20a3,3,0,0,1,-3,3h-94a3,3,0,0,1,-3,-3v-20a3,3,0,0,1,3,-3z" stroke-width="1"></path><g id="node_text47" fill="black"><text id="kity_text_231" text-rendering="inherit" font-size="14" dy=".8em" y="114.40000212192535" x="4129.500004984438">系统实现I</text></g></g><g id="minder_node28"><g id="node_expander43" style="cursor: pointer;"><path id="kity_path_432" fill="white" stroke="gray" d="M3379.4999937191606,165.50000277906656A6,6,0,1,1,3367.4999937191606,165.50000277906656A6,6,0,1,1,3379.4999937191606,165.50000277906656"></path><path id="kity_path_433" fill="none" stroke="gray" d="M3368.9999937191606,165.50000277906656L3377.9999937191606,165.50000277906656"></path></g><path id="node_outline44" fill="none" stroke="none" d="M3335.4999932274222,171.5000030323863h76a5,5,0,0,1,5,5v12a5,5,0,0,1,-5,5h-76a5,5,0,0,1,-5,-5v-12a5,5,0,0,1,5,-5z"></path><g id="node_text44" fill="black"><text id="kity_text_225" text-rendering="inherit" font-size="12" dy=".8em" y="174.7000030055642" x="3340.4999932274222">代码编写I01</text></g></g><g id="minder_node29"><g id="node_expander26" style="cursor: pointer;" display="none"><path id="kity_path_381" fill="white" stroke="gray" d="M2796.999985039234,217.50000355392694A6,6,0,1,1,2784.999985039234,217.50000355392694A6,6,0,1,1,2796.999985039234,217.50000355392694"></path><path id="kity_path_382" fill="none" stroke="gray"></path></g><path id="node_outline27" fill="none" stroke="none" d="M2745.499984435737,223.50000380724669h91a5,5,0,0,1,5,5v12a5,5,0,0,1,-5,5h-91a5,5,0,0,1,-5,-5v-12a5,5,0,0,1,5,-5z"></path><g id="node_text27" fill="black"><text id="kity_text_191" text-rendering="inherit" font-size="12" dy=".8em" y="226.7000037804246" x="2750.499984435737">整体架构I0101</text></g></g><g id="minder_node30"><g id="node_expander27" style="cursor: pointer;" display="none"><path id="kity_path_384" fill="white" stroke="gray" d="M2937.999987140298,217.50000355392694A6,6,0,1,1,2925.999987140298,217.50000355392694A6,6,0,1,1,2937.999987140298,217.50000355392694"></path><path id="kity_path_385" fill="none" stroke="gray"></path></g><path id="node_outline28" fill="none" stroke="none" d="M2886.499986536801,223.50000380724669h91a5,5,0,0,1,5,5v12a5,5,0,0,1,-5,5h-91a5,5,0,0,1,-5,-5v-12a5,5,0,0,1,5,-5z"></path><g id="node_text28" fill="black"><text id="kity_text_193" text-rendering="inherit" font-size="12" dy=".8em" y="226.7000037804246" x="2891.499986536801">基础组件I0102</text></g></g><g id="minder_node31"><g id="node_expander42" style="cursor: pointer;"><path id="kity_path_429" fill="white" stroke="gray" d="M3950.000002220273,217.50000355392694A6,6,0,1,1,3938.000002220273,217.50000355392694A6,6,0,1,1,3950.000002220273,217.50000355392694"></path><path id="kity_path_430" fill="none" stroke="gray" d="M3939.500002220273,217.50000355392694L3948.500002220273,217.50000355392694"></path></g><path id="node_outline43" fill="none" stroke="none" d="M3886.500001437962,223.50000380724669h115a5,5,0,0,1,5,5v12a5,5,0,0,1,-5,5h-115a5,5,0,0,1,-5,-5v-12a5,5,0,0,1,5,-5z"></path><g id="node_text43" fill="black"><text id="kity_text_223" text-rendering="inherit" font-size="12" dy=".8em" y="226.7000037804246" x="3891.500001437962">系统功能实现I0103</text></g></g><g id="minder_node32"><g id="node_expander34" style="cursor: pointer;"><path id="kity_path_405" fill="white" stroke="gray" d="M3532.999996006489,269.5000043287873A6,6,0,1,1,3520.999996006489,269.5000043287873A6,6,0,1,1,3532.999996006489,269.5000043287873"></path><path id="kity_path_406" fill="none" stroke="gray" d="M3522.499996006489,269.5000043287873L3531.499996006489,269.5000043287873"></path></g><path id="node_outline35" fill="none" stroke="none" d="M3462.4999951198697,275.50000458210707h129a5,5,0,0,1,5,5v12a5,5,0,0,1,-5,5h-129a5,5,0,0,1,-5,-5v-12a5,5,0,0,1,5,-5z"></path><g id="node_text35" fill="black"><text id="kity_text_207" text-rendering="inherit" font-size="12" dy=".8em" y="278.700004555285" x="3467.4999951198697">基础功能实现I010301</text></g></g><g id="minder_node33"><g id="node_expander28" style="cursor: pointer;" display="none"><path id="kity_path_387" fill="white" stroke="gray" d="M3092.4999894425273,321.5000051036477A6,6,0,1,1,3080.4999894425273,321.5000051036477A6,6,0,1,1,3092.4999894425273,321.5000051036477"></path><path id="kity_path_388" fill="none" stroke="gray"></path></g><path id="node_outline29" fill="none" stroke="none" d="M3027.4999886378646,327.50000535696745h118a5,5,0,0,1,5,5v12a5,5,0,0,1,-5,5h-118a5,5,0,0,1,-5,-5v-12a5,5,0,0,1,5,-5z"></path><g id="node_text29" fill="black"><text id="kity_text_195" text-rendering="inherit" font-size="12" dy=".8em" y="330.70000533014536" x="3032.4999886378646">自动建图I01030101</text></g></g><g id="minder_node34"><g id="node_expander29" style="cursor: pointer;" display="none"><path id="kity_path_390" fill="white" stroke="gray" d="M3266.99999204278,321.5000051036477A6,6,0,1,1,3254.99999204278,321.5000051036477A6,6,0,1,1,3266.99999204278,321.5000051036477"></path><path id="kity_path_391" fill="none" stroke="gray"></path></g><path id="node_outline30" fill="none" stroke="none" d="M3195.4999911412597,327.50000535696745h131a5,5,0,0,1,5,5v12a5,5,0,0,1,-5,5h-131a5,5,0,0,1,-5,-5v-12a5,5,0,0,1,5,-5z"></path><g id="node_text30" fill="black"><text id="kity_text_197" text-rendering="inherit" font-size="12" dy=".8em" y="330.70000533014536" x="3200.4999911412597">导航与避障I01030102</text></g></g><g id="minder_node35"><g id="node_expander30" style="cursor: pointer;" display="none"><path id="kity_path_393" fill="white" stroke="gray" d="M3441.999994650483,321.5000051036477A6,6,0,1,1,3429.999994650483,321.5000051036477A6,6,0,1,1,3441.999994650483,321.5000051036477"></path><path id="kity_path_394" fill="none" stroke="gray"></path></g><path id="node_outline31" fill="none" stroke="none" d="M3376.49999383837,327.50000535696745h119a5,5,0,0,1,5,5v12a5,5,0,0,1,-5,5h-119a5,5,0,0,1,-5,-5v-12a5,5,0,0,1,5,-5z"></path><g id="node_text31" fill="black"><text id="kity_text_199" text-rendering="inherit" font-size="12" dy=".8em" y="330.70000533014536" x="3381.49999383837">物品抓取I01030103</text></g></g><g id="minder_node36"><g id="node_expander31" style="cursor: pointer;" display="none"><path id="kity_path_396" fill="white" stroke="gray" d="M3622.9999973475933,321.5000051036477A6,6,0,1,1,3610.9999973475933,321.5000051036477A6,6,0,1,1,3622.9999973475933,321.5000051036477"></path><path id="kity_path_397" fill="none" stroke="gray"></path></g><path id="node_outline32" fill="none" stroke="none" d="M3545.499996356666,327.50000535696745h143a5,5,0,0,1,5,5v12a5,5,0,0,1,-5,5h-143a5,5,0,0,1,-5,-5v-12a5,5,0,0,1,5,-5z"></path><g id="node_text32" fill="black"><text id="kity_text_201" text-rendering="inherit" font-size="12" dy=".8em" y="330.70000533014536" x="3550.499996356666">语音指令取物I01030104</text></g></g><g id="minder_node37"><g id="node_expander32" style="cursor: pointer;" display="none"><path id="kity_path_399" fill="white" stroke="gray" d="M3804.0000000447035,321.5000051036477A6,6,0,1,1,3792.0000000447035,321.5000051036477A6,6,0,1,1,3804.0000000447035,321.5000051036477"></path><path id="kity_path_400" fill="none" stroke="gray"></path></g><path id="node_outline33" fill="none" stroke="none" d="M3738.49999923259,327.50000535696745h119a5,5,0,0,1,5,5v12a5,5,0,0,1,-5,5h-119a5,5,0,0,1,-5,-5v-12a5,5,0,0,1,5,-5z"></path><g id="node_text33" fill="black"><text id="kity_text_203" text-rendering="inherit" font-size="12" dy=".8em" y="330.70000533014536" x="3743.49999923259">系统前端I01030105</text></g></g><g id="minder_node38"><g id="node_expander33" style="cursor: pointer;" display="none"><path id="kity_path_402" fill="white" stroke="gray" d="M3973.0000025629997,321.5000051036477A6,6,0,1,1,3961.0000025629997,321.5000051036477A6,6,0,1,1,3973.0000025629997,321.5000051036477"></path><path id="kity_path_403" fill="none" stroke="gray"></path></g><path id="node_outline34" fill="none" stroke="none" d="M3907.5000017508864,327.50000535696745h119a5,5,0,0,1,5,5v12a5,5,0,0,1,-5,5h-119a5,5,0,0,1,-5,-5v-12a5,5,0,0,1,5,-5z"></path><g id="node_text34" fill="black"><text id="kity_text_205" text-rendering="inherit" font-size="12" dy=".8em" y="330.70000533014536" x="3912.5000017508864">系统后端I01030106</text></g></g><g id="minder_node39"><g id="node_expander41" style="cursor: pointer;"><path id="kity_path_426" fill="white" stroke="gray" d="M4367.000008434057,269.5000043287873A6,6,0,1,1,4355.000008434057,269.5000043287873A6,6,0,1,1,4367.000008434057,269.5000043287873"></path><path id="kity_path_427" fill="none" stroke="gray" d="M4356.500008434057,269.5000043287873L4365.500008434057,269.5000043287873"></path></g><path id="node_outline42" fill="none" stroke="none" d="M4296.500007547438,275.50000458210707h129a5,5,0,0,1,5,5v12a5,5,0,0,1,-5,5h-129a5,5,0,0,1,-5,-5v-12a5,5,0,0,1,5,-5z" stroke-width="3"></path><g id="node_text42" fill="black"><text id="kity_text_221" text-rendering="inherit" font-size="12" dy=".8em" y="278.700004555285" x="4301.500007547438">扩展功能实现I010302</text></g></g><g id="minder_node41"><g id="node_expander36" style="cursor: pointer;" display="none"><path id="kity_path_411" fill="white" stroke="gray" d="M4143.000005096197,321.5000051036477A6,6,0,1,1,4131.000005096197,321.5000051036477A6,6,0,1,1,4143.000005096197,321.5000051036477"></path><path id="kity_path_412" fill="none" stroke="gray"></path></g><path id="node_outline37" fill="none" stroke="none" d="M4077.500004284084,327.50000535696745h119a5,5,0,0,1,5,5v12a5,5,0,0,1,-5,5h-119a5,5,0,0,1,-5,-5v-12a5,5,0,0,1,5,-5z" stroke-width="3"></path><g id="node_text37" fill="black"><text id="kity_text_211" text-rendering="inherit" font-size="12" dy=".8em" y="330.70000533014536" x="4082.500004284084">倾倒报警I01030201</text></g></g><g id="minder_node42"><g id="node_expander37" style="cursor: pointer;" display="none"><path id="kity_path_414" fill="white" stroke="gray" d="M4312.000007614493,321.5000051036477A6,6,0,1,1,4300.000007614493,321.5000051036477A6,6,0,1,1,4312.000007614493,321.5000051036477"></path><path id="kity_path_415" fill="none" stroke="gray"></path></g><path id="node_outline38" fill="none" stroke="none" d="M4246.50000680238,327.50000535696745h119a5,5,0,0,1,5,5v12a5,5,0,0,1,-5,5h-119a5,5,0,0,1,-5,-5v-12a5,5,0,0,1,5,-5z" stroke-width="3"></path><g id="node_text38" fill="black"><text id="kity_text_213" text-rendering="inherit" font-size="12" dy=".8em" y="330.70000533014536" x="4251.50000680238">系统维护I01030202</text></g></g><g id="minder_node43"><g id="node_expander40" style="cursor: pointer;"><path id="kity_path_423" fill="white" stroke="gray" d="M4579.000011593103,321.5000051036477A6,6,0,1,1,4567.000011593103,321.5000051036477A6,6,0,1,1,4579.000011593103,321.5000051036477"></path><path id="kity_path_424" fill="none" stroke="gray" d="M4568.500011593103,321.5000051036477L4577.500011593103,321.5000051036477"></path></g><path id="node_outline41" fill="none" stroke="none" d="M4501.500010602176,327.50000535696745h143a5,5,0,0,1,5,5v12a5,5,0,0,1,-5,5h-143a5,5,0,0,1,-5,-5v-12a5,5,0,0,1,5,-5z" stroke-width="3"></path><g id="node_text41" fill="black"><text id="kity_text_219" text-rendering="inherit" font-size="12" dy=".8em" y="330.70000533014536" x="4506.500010602176">系统语音助手I01030203</text></g></g><g id="minder_node44"><g id="node_expander38" style="cursor: pointer;" display="none"><path id="kity_path_417" fill="white" stroke="gray" d="M4488.000010237098,373.5000058785081A6,6,0,1,1,4476.000010237098,373.5000058785081A6,6,0,1,1,4488.000010237098,373.5000058785081"></path><path id="kity_path_418" fill="none" stroke="gray"></path></g><path id="node_outline39" fill="none" stroke="none" d="M4415.500009320676,379.50000613182783h133a5,5,0,0,1,5,5v12a5,5,0,0,1,-5,5h-133a5,5,0,0,1,-5,-5v-12a5,5,0,0,1,5,-5z" stroke-width="3"></path><g id="node_text39" fill="black"><text id="kity_text_215" text-rendering="inherit" font-size="12" dy=".8em" y="382.70000610500574" x="4420.500009320676">天气预报I0103020301</text></g></g><g id="minder_node45"><g id="node_expander39" style="cursor: pointer;" display="none"><path id="kity_path_420" fill="white" stroke="gray" d="M4671.00001296401,373.5000058785081A6,6,0,1,1,4659.00001296401,373.5000058785081A6,6,0,1,1,4671.00001296401,373.5000058785081"></path><path id="kity_path_421" fill="none" stroke="gray"></path></g><path id="node_outline40" fill="none" stroke="none" d="M4598.500012047589,379.50000613182783h133a5,5,0,0,1,5,5v12a5,5,0,0,1,-5,5h-133a5,5,0,0,1,-5,-5v-12a5,5,0,0,1,5,-5z" stroke-width="3"></path><g id="node_text40" fill="black"><text id="kity_text_217" text-rendering="inherit" font-size="12" dy=".8em" y="382.70000610500574" x="4603.500012047589">语音聊天I0103020302</text></g></g><g id="minder_node46"><g id="node_expander44" style="cursor: pointer;" display="none"><path id="kity_path_435" fill="white" stroke="gray" d="M4825.000015258789,165.50000277906656A6,6,0,1,1,4813.000015258789,165.50000277906656A6,6,0,1,1,4825.000015258789,165.50000277906656"></path><path id="kity_path_436" fill="none" stroke="gray"></path></g><path id="node_outline45" fill="none" stroke="none" d="M4780.5000147596,171.5000030323863h77a5,5,0,0,1,5,5v12a5,5,0,0,1,-5,5h-77a5,5,0,0,1,-5,-5v-12a5,5,0,0,1,5,-5z"></path><g id="node_text45" fill="black"><text id="kity_text_227" text-rendering="inherit" font-size="12" dy=".8em" y="174.7000030055642" x="4785.5000147596">代码审阅I02</text></g></g><g id="minder_node47"><g id="node_expander45" style="cursor: pointer;" display="none"><path id="kity_path_438" fill="white" stroke="gray" d="M4951.500017143786,165.50000277906656A6,6,0,1,1,4939.500017143786,165.50000277906656A6,6,0,1,1,4951.500017143786,165.50000277906656"></path><path id="kity_path_439" fill="none" stroke="gray"></path></g><path id="node_outline46" fill="none" stroke="none" d="M4907.500016652048,171.5000030323863h76a5,5,0,0,1,5,5v12a5,5,0,0,1,-5,5h-76a5,5,0,0,1,-5,-5v-12a5,5,0,0,1,5,-5z"></path><g id="node_text46" fill="black"><text id="kity_text_229" text-rendering="inherit" font-size="12" dy=".8em" y="174.7000030055642" x="4912.500016652048">代码整合I03</text></g></g><g id="minder_node48"><g id="node_expander55" style="cursor: pointer;"><path id="kity_path_468" fill="white" stroke="gray" d="M5442.0000244528055,103.50000185519457A6,6,0,1,1,5430.0000244528055,103.50000185519457A6,6,0,1,1,5442.0000244528055,103.50000185519457"></path><path id="kity_path_469" fill="none" stroke="gray" d="M5431.5000244528055,103.50000185519457L5440.5000244528055,103.50000185519457"></path></g><path id="node_outline56" fill="rgb(238, 243, 246)" stroke="rgb(115, 161, 191)" d="M5386.500023968518,110.50000215321779h99a3,3,0,0,1,3,3v20a3,3,0,0,1,-3,3h-99a3,3,0,0,1,-3,-3v-20a3,3,0,0,1,3,-3z" stroke-width="1"></path><g id="node_text56" fill="black"><text id="kity_text_249" text-rendering="inherit" font-size="14" dy=".8em" y="114.40000212192535" x="5403.500023968518">系统测试T</text></g></g><g id="minder_node49"><g id="node_expander47" style="cursor: pointer;" display="none"><path id="kity_path_444" fill="white" stroke="gray" d="M5078.500019036233,165.50000277906656A6,6,0,1,1,5066.500019036233,165.50000277906656A6,6,0,1,1,5078.500019036233,165.50000277906656"></path><path id="kity_path_445" fill="none" stroke="gray"></path></g><path id="node_outline48" fill="none" stroke="none" d="M5034.500018544495,171.5000030323863h76a5,5,0,0,1,5,5v12a5,5,0,0,1,-5,5h-76a5,5,0,0,1,-5,-5v-12a5,5,0,0,1,5,-5z"></path><g id="node_text48" fill="black"><text id="kity_text_233" text-rendering="inherit" font-size="12" dy=".8em" y="174.7000030055642" x="5039.500018544495">STP撰写T01</text></g></g><g id="minder_node50"><g id="node_expander50" style="cursor: pointer;"><path id="kity_path_453" fill="white" stroke="gray" d="M5291.500022210181,165.50000277906656A6,6,0,1,1,5279.500022210181,165.50000277906656A6,6,0,1,1,5291.500022210181,165.50000277906656"></path><path id="kity_path_454" fill="none" stroke="gray" d="M5281.000022210181,165.50000277906656L5290.000022210181,165.50000277906656"></path></g><path id="node_outline51" fill="none" stroke="none" d="M5245.50002168864,171.5000030323863h80a5,5,0,0,1,5,5v12a5,5,0,0,1,-5,5h-80a5,5,0,0,1,-5,-5v-12a5,5,0,0,1,5,-5z"></path><g id="node_text51" fill="black"><text id="kity_text_239" text-rendering="inherit" font-size="12" dy=".8em" y="174.7000030055642" x="5250.50002168864">仿真测试T02</text></g></g><g id="minder_node51"><g id="node_expander48" style="cursor: pointer;" display="none"><path id="kity_path_447" fill="white" stroke="gray" d="M5219.500021137297,217.50000355392694A6,6,0,1,1,5207.500021137297,217.50000355392694A6,6,0,1,1,5219.500021137297,217.50000355392694"></path><path id="kity_path_448" fill="none" stroke="gray"></path></g><path id="node_outline49" fill="none" stroke="none" d="M5160.500020422041,223.50000380724669h106a5,5,0,0,1,5,5v12a5,5,0,0,1,-5,5h-106a5,5,0,0,1,-5,-5v-12a5,5,0,0,1,5,-5z"></path><g id="node_text49" fill="black"><text id="kity_text_235" text-rendering="inherit" font-size="12" dy=".8em" y="226.7000037804246" x="5165.500020422041">正确性验证T0201</text></g></g><g id="minder_node52"><g id="node_expander49" style="cursor: pointer;" display="none"><path id="kity_path_450" fill="white" stroke="gray" d="M5369.500023372471,217.50000355392694A6,6,0,1,1,5357.500023372471,217.50000355392694A6,6,0,1,1,5369.500023372471,217.50000355392694"></path><path id="kity_path_451" fill="none" stroke="gray"></path></g><path id="node_outline50" fill="none" stroke="none" d="M5316.500022746623,223.50000380724669h94a5,5,0,0,1,5,5v12a5,5,0,0,1,-5,5h-94a5,5,0,0,1,-5,-5v-12a5,5,0,0,1,5,-5z"></path><g id="node_text50" fill="black"><text id="kity_text_237" text-rendering="inherit" font-size="12" dy=".8em" y="226.7000037804246" x="5321.500022746623">性能测试T0202</text></g></g><g id="minder_node53"><g id="node_expander53" style="cursor: pointer;"><path id="kity_path_462" fill="white" stroke="gray" d="M5591.0000266730785,165.50000277906656A6,6,0,1,1,5579.0000266730785,165.50000277906656A6,6,0,1,1,5591.0000266730785,165.50000277906656"></path><path id="kity_path_463" fill="none" stroke="gray" d="M5580.5000266730785,165.50000277906656L5589.5000266730785,165.50000277906656"></path></g><path id="node_outline54" fill="none" stroke="none" d="M5545.5000261589885,171.5000030323863h79a5,5,0,0,1,5,5v12a5,5,0,0,1,-5,5h-79a5,5,0,0,1,-5,-5v-12a5,5,0,0,1,5,-5z"></path><g id="node_text54" fill="black"><text id="kity_text_245" text-rendering="inherit" font-size="12" dy=".8em" y="174.7000030055642" x="5550.5000261589885">实机测试T03</text></g></g><g id="minder_node54"><g id="node_expander51" style="cursor: pointer;" display="none"><path id="kity_path_456" fill="white" stroke="gray" d="M5519.5000256076455,217.50000355392694A6,6,0,1,1,5507.5000256076455,217.50000355392694A6,6,0,1,1,5519.5000256076455,217.50000355392694"></path><path id="kity_path_457" fill="none" stroke="gray"></path></g><path id="node_outline52" fill="none" stroke="none" d="M5460.50002489239,223.50000380724669h106a5,5,0,0,1,5,5v12a5,5,0,0,1,-5,5h-106a5,5,0,0,1,-5,-5v-12a5,5,0,0,1,5,-5z"></path><g id="node_text52" fill="black"><text id="kity_text_241" text-rendering="inherit" font-size="12" dy=".8em" y="226.7000037804246" x="5465.50002489239">正确性验证T0301</text></g></g><g id="minder_node55"><g id="node_expander52" style="cursor: pointer;" display="none"><path id="kity_path_459" fill="white" stroke="gray" d="M5669.50002784282,217.50000355392694A6,6,0,1,1,5657.50002784282,217.50000355392694A6,6,0,1,1,5669.50002784282,217.50000355392694"></path><path id="kity_path_460" fill="none" stroke="gray"></path></g><path id="node_outline53" fill="none" stroke="none" d="M5616.500027216971,223.50000380724669h94a5,5,0,0,1,5,5v12a5,5,0,0,1,-5,5h-94a5,5,0,0,1,-5,-5v-12a5,5,0,0,1,5,-5z"></path><g id="node_text53" fill="black"><text id="kity_text_243" text-rendering="inherit" font-size="12" dy=".8em" y="226.7000037804246" x="5621.500027216971">性能测试T0302</text></g></g><g id="minder_node56"><g id="node_expander54" style="cursor: pointer;" display="none"><path id="kity_path_465" fill="white" stroke="gray" d="M5805.500029869378,165.50000277906656A6,6,0,1,1,5793.500029869378,165.50000277906656A6,6,0,1,1,5805.500029869378,165.50000277906656"></path><path id="kity_path_466" fill="none" stroke="gray"></path></g><path id="node_outline55" fill="none" stroke="none" d="M5760.500029362738,171.5000030323863h78a5,5,0,0,1,5,5v12a5,5,0,0,1,-5,5h-78a5,5,0,0,1,-5,-5v-12a5,5,0,0,1,5,-5z"></path><g id="node_text55" fill="black"><text id="kity_text_247" text-rendering="inherit" font-size="12" dy=".8em" y="174.7000030055642" x="5765.500029362738">STD撰写T04</text></g></g></g></g></svg>